<svg width="480" height="480" viewBox="0 0 480 480" fill="none" xmlns="http://www.w3.org/2000/svg">
<circle cx="238" cy="240" r="210" fill="#FBEA51"/>
<circle cx="238" cy="240" r="180" fill="#54A8AD"/>
<g filter="url(#filter0_d_6_23)">
<path d="M48.816 256.28L23.984 185.496C22.2773 180.632 20.4427 177.261 18.48 175.384C16.6027 173.507 13.744 172.397 9.904 172.056V169.496C10.2453 169.496 10.928 169.453 11.952 169.368C12.8907 169.283 13.6587 169.24 14.256 169.24C16.6453 169.24 19.2053 169.581 21.936 170.264C24.6667 170.861 27.2693 172.312 29.744 174.616C32.304 176.92 34.4373 180.547 36.144 185.496L53.296 234.904L66.992 194.328L63.92 185.496C62.2133 180.632 60.3787 177.261 58.416 175.384C56.5387 173.507 53.68 172.397 49.84 172.056V169.496C50.1813 169.496 50.8213 169.453 51.76 169.368C52.784 169.283 53.5947 169.24 54.192 169.24C56.5813 169.24 59.1413 169.581 61.872 170.264C64.6027 170.861 67.2053 172.312 69.68 174.616C72.24 176.92 74.3733 180.547 76.08 185.496L93.232 234.904L115.12 170.52H120.624L91.312 256.28H88.752L69.808 202.392L51.376 256.28H48.816ZM142.052 256.28C140.26 256.28 138.297 255.981 136.164 255.384C134.116 254.872 132.111 253.933 130.148 252.568C128.185 251.203 126.564 249.368 125.284 247.064C124.089 244.76 123.492 241.859 123.492 238.36C123.492 233.667 124.985 230.04 127.972 227.48C131.044 224.92 135.055 223.128 140.004 222.104C145.039 220.995 150.415 220.44 156.132 220.44H159.972C159.972 214.467 159.375 209.944 158.18 206.872C156.985 203.715 155.364 201.581 153.316 200.472C151.353 199.277 149.092 198.68 146.532 198.68C142.948 198.68 139.919 199.448 137.444 200.984C135.055 202.52 133.391 205.379 132.452 209.56H126.692C126.692 207.341 126.82 205.293 127.076 203.416C127.332 201.453 128.271 199.661 129.892 198.04C131.513 196.419 134.159 195.267 137.828 194.584C141.497 193.901 145.252 193.56 149.092 193.56C151.993 193.56 154.767 193.901 157.412 194.584C160.143 195.267 162.532 196.547 164.58 198.424C166.713 200.216 168.377 202.904 169.572 206.488C170.852 209.987 171.492 214.637 171.492 220.44V255H165.092L160.612 249.24H159.972C158.692 250.861 156.601 252.44 153.7 253.976C150.799 255.512 146.916 256.28 142.052 256.28ZM147.812 250.52C150.969 250.52 153.444 249.752 155.236 248.216C157.113 246.595 158.692 244.803 159.972 242.84V225.56H156.132C149.732 225.56 144.697 226.755 141.028 229.144C137.444 231.448 135.652 234.52 135.652 238.36C135.652 242.541 136.889 245.613 139.364 247.576C141.839 249.539 144.655 250.52 147.812 250.52ZM191.261 255V210.2C191.261 206.36 190.706 203.288 189.597 200.984C188.573 198.595 186.141 197.4 182.301 197.4H179.741V194.84H191.261C194.504 194.84 196.936 195.309 198.557 196.248C200.264 197.101 201.458 198.339 202.141 199.96H202.781C204.402 198.339 206.621 196.888 209.437 195.608C212.253 194.243 215.581 193.56 219.421 193.56C221.64 193.56 223.688 193.816 225.565 194.328C227.528 194.84 229.277 195.736 230.813 197.016C232.434 198.296 233.757 200.131 234.781 202.52C237 199.619 239.858 197.4 243.357 195.864C246.856 194.328 250.397 193.56 253.981 193.56C257.224 193.56 260.168 194.2 262.813 195.48C265.544 196.76 267.72 199.064 269.341 202.392C271.048 205.635 271.901 210.371 271.901 216.6V255H260.381V216.6C260.381 210.2 259.485 205.72 257.693 203.16C255.901 200.6 253.384 199.32 250.141 199.32C247.666 199.32 245.106 200.216 242.461 202.008C239.816 203.8 237.896 205.677 236.701 207.64C237.042 208.579 237.213 209.987 237.213 211.864C237.298 213.741 237.341 215.32 237.341 216.6V255H225.821V216.6C225.821 210.2 224.925 205.72 223.133 203.16C221.341 200.6 218.824 199.32 215.581 199.32C213.021 199.32 210.632 200.003 208.413 201.368C206.28 202.733 204.402 204.312 202.781 206.104V255H191.261ZM292.273 255V199.96H283.313V194.84H292.273V191C292.273 185.027 293.382 180.504 295.601 177.432C297.82 174.275 300.636 172.141 304.049 171.032C307.548 169.837 311.089 169.24 314.673 169.24C317.318 169.24 319.537 169.411 321.329 169.752C323.206 170.008 324.614 170.477 325.553 171.16C326.492 171.843 327.302 172.653 327.985 173.592C328.668 174.531 329.35 175.64 330.033 176.92L326.193 180.12C324.913 178.157 323.249 176.707 321.201 175.768C319.153 174.829 316.764 174.36 314.033 174.36C311.132 174.36 308.7 175.555 306.737 177.944C304.774 180.333 303.793 184.685 303.793 191V194.84H321.713V199.96H303.793V255H292.273ZM347.302 256.28C345.51 256.28 343.547 255.981 341.414 255.384C339.366 254.872 337.361 253.933 335.398 252.568C333.435 251.203 331.814 249.368 330.534 247.064C329.339 244.76 328.742 241.859 328.742 238.36C328.742 233.667 330.235 230.04 333.222 227.48C336.294 224.92 340.305 223.128 345.254 222.104C350.289 220.995 355.665 220.44 361.382 220.44H365.222C365.222 214.467 364.625 209.944 363.43 206.872C362.235 203.715 360.614 201.581 358.566 200.472C356.603 199.277 354.342 198.68 351.782 198.68C348.198 198.68 345.169 199.448 342.694 200.984C340.305 202.52 338.641 205.379 337.702 209.56H331.942C331.942 207.341 332.07 205.293 332.326 203.416C332.582 201.453 333.521 199.661 335.142 198.04C336.763 196.419 339.409 195.267 343.078 194.584C346.747 193.901 350.502 193.56 354.342 193.56C357.243 193.56 360.017 193.901 362.662 194.584C365.393 195.267 367.782 196.547 369.83 198.424C371.963 200.216 373.627 202.904 374.822 206.488C376.102 209.987 376.742 214.637 376.742 220.44V255H370.342L365.862 249.24H365.222C363.942 250.861 361.851 252.44 358.95 253.976C356.049 255.512 352.166 256.28 347.302 256.28ZM353.062 250.52C356.219 250.52 358.694 249.752 360.486 248.216C362.363 246.595 363.942 244.803 365.222 242.84V225.56H361.382C354.982 225.56 349.947 226.755 346.278 229.144C342.694 231.448 340.902 234.52 340.902 238.36C340.902 242.541 342.139 245.613 344.614 247.576C347.089 249.539 349.905 250.52 353.062 250.52Z" fill="#EDEBEB"/>
</g>
<g filter="url(#filter1_d_6_23)">
<path d="M316.768 272.944C317.963 273.115 318.773 273.477 319.2 274.032C319.669 274.587 319.904 275.312 319.904 276.208C319.904 279.152 318.325 280.517 315.168 280.304L312.928 280.112C310.411 279.899 307.893 279.728 305.376 279.6C302.901 279.472 300.299 279.408 297.568 279.408H294.688C294.176 285.723 293.643 291.483 293.088 296.688L304.096 296.496C305.675 296.496 306.72 296.773 307.232 297.328C307.787 297.883 308.064 298.629 308.064 299.568C308.064 301.019 307.637 302.171 306.784 303.024C305.931 303.835 304.715 304.24 303.136 304.24H292.192L291.808 306.992C290.912 314.032 288.992 319.045 286.048 322.032C283.147 325.019 279.136 326.512 274.016 326.512C271.115 326.512 268.448 325.893 266.016 324.656C263.584 323.376 261.792 321.84 260.64 320.048C260.171 319.323 259.936 318.448 259.936 317.424C259.936 316.4 260.171 315.504 260.64 314.736C261.152 313.968 261.771 313.584 262.496 313.584C263.008 313.584 263.499 313.755 263.968 314.096C264.48 314.437 265.12 315.099 265.888 316.08C267.936 318.768 270.475 320.112 273.504 320.112C275.936 320.112 277.963 319.131 279.584 317.168C281.248 315.163 282.315 312.027 282.784 307.76L283.168 304.24H280.096C279.115 304.24 278.261 303.963 277.536 303.408C276.853 302.853 276.512 302.064 276.512 301.04C276.512 299.717 276.853 298.715 277.536 298.032C278.219 297.307 279.221 296.944 280.544 296.944C281.739 296.944 282.912 296.923 284.064 296.88C284.576 292.187 285.131 286.491 285.728 279.792C281.12 280.219 277.877 280.965 276 282.032C274.123 283.099 273.184 284.677 273.184 286.768C273.184 288.219 273.611 289.605 274.464 290.928C274.72 291.312 274.848 291.696 274.848 292.08C274.848 292.848 274.421 293.531 273.568 294.128C272.715 294.683 271.755 294.96 270.688 294.96C269.536 294.96 268.555 294.619 267.744 293.936C267.232 293.509 266.741 292.635 266.272 291.312C265.803 289.989 265.568 288.517 265.568 286.896C265.568 281.605 268.277 277.765 273.696 275.376C279.157 272.987 287.115 271.792 297.568 271.792C304.821 271.792 311.221 272.176 316.768 272.944ZM340.65 306.352C341.204 306.352 341.631 306.629 341.93 307.184C342.228 307.739 342.378 308.443 342.378 309.296C342.378 311.344 341.759 312.56 340.522 312.944C337.962 313.84 335.146 314.352 332.074 314.48C331.263 318.064 329.663 320.944 327.274 323.12C324.884 325.253 322.175 326.32 319.146 326.32C316.586 326.32 314.388 325.701 312.554 324.464C310.762 323.227 309.396 321.584 308.458 319.536C307.519 317.488 307.049 315.269 307.049 312.88C307.049 309.637 307.668 306.757 308.906 304.24C310.143 301.68 311.85 299.696 314.026 298.288C316.202 296.837 318.612 296.112 321.258 296.112C324.5 296.112 327.103 297.243 329.066 299.504C331.071 301.723 332.244 304.475 332.586 307.76C334.591 307.632 336.98 307.205 339.754 306.48C340.095 306.395 340.394 306.352 340.65 306.352ZM319.658 319.536C321.023 319.536 322.196 318.981 323.178 317.872C324.202 316.763 324.884 315.163 325.226 313.072C323.903 312.176 322.879 311.003 322.154 309.552C321.471 308.101 321.13 306.565 321.13 304.944C321.13 304.261 321.194 303.579 321.322 302.896H321.002C319.295 302.896 317.866 303.728 316.714 305.392C315.604 307.013 315.05 309.317 315.05 312.304C315.05 314.651 315.498 316.443 316.394 317.68C317.332 318.917 318.42 319.536 319.658 319.536ZM369.525 306.352C370.079 306.352 370.506 306.629 370.805 307.184C371.103 307.739 371.253 308.443 371.253 309.296C371.253 311.344 370.634 312.56 369.397 312.944C366.837 313.84 364.021 314.352 360.949 314.48C360.138 318.064 358.538 320.944 356.149 323.12C353.759 325.253 351.05 326.32 348.021 326.32C345.461 326.32 343.263 325.701 341.429 324.464C339.637 323.227 338.271 321.584 337.333 319.536C336.394 317.488 335.924 315.269 335.924 312.88C335.924 309.637 336.543 306.757 337.781 304.24C339.018 301.68 340.725 299.696 342.901 298.288C345.077 296.837 347.487 296.112 350.133 296.112C353.375 296.112 355.978 297.243 357.941 299.504C359.946 301.723 361.119 304.475 361.461 307.76C363.466 307.632 365.855 307.205 368.629 306.48C368.97 306.395 369.269 306.352 369.525 306.352ZM348.533 319.536C349.898 319.536 351.071 318.981 352.053 317.872C353.077 316.763 353.759 315.163 354.101 313.072C352.778 312.176 351.754 311.003 351.029 309.552C350.346 308.101 350.005 306.565 350.005 304.944C350.005 304.261 350.069 303.579 350.197 302.896H349.877C348.17 302.896 346.741 303.728 345.589 305.392C344.479 307.013 343.925 309.317 343.925 312.304C343.925 314.651 344.373 316.443 345.269 317.68C346.207 318.917 347.295 319.536 348.533 319.536ZM389.056 311.728C389.525 315.227 390.208 318.683 391.104 322.096C391.274 322.651 391.36 323.227 391.36 323.824C391.36 325.744 390.186 326.704 387.84 326.704C386.517 326.704 385.493 326.341 384.768 325.616C384.085 324.891 383.445 323.525 382.848 321.52L382.784 321.264C381.162 323.269 379.69 324.613 378.368 325.296C377.088 325.979 375.594 326.32 373.888 326.32C371.285 326.32 369.13 325.36 367.424 323.44C365.76 321.477 364.928 318.939 364.928 315.824C364.928 312.411 365.653 309.253 367.104 306.352C368.554 303.451 370.538 301.083 373.056 299.248C375.573 297.371 378.389 296.24 381.503 295.856C382.314 287.792 383.85 280.773 386.112 274.8C388.416 268.827 391.466 265.84 395.264 265.84C397.098 265.84 398.613 266.672 399.808 268.336C401.045 270 401.664 272.517 401.664 275.888C401.664 280.581 400.512 286.064 398.208 292.336C395.904 298.608 392.853 305.072 389.056 311.728ZM394.56 272.112C393.322 272.112 392.149 275.269 391.04 281.584C389.973 287.899 389.248 294.768 388.864 302.192C393.6 291.952 395.968 283.632 395.968 277.232C395.968 275.611 395.818 274.352 395.52 273.456C395.264 272.56 394.944 272.112 394.56 272.112ZM376.128 319.856C376.981 319.856 377.792 319.536 378.56 318.896C379.37 318.256 380.394 317.019 381.632 315.184C381.205 312.069 380.992 308.848 380.992 305.52C380.992 304.197 381.013 303.173 381.056 302.448C378.709 303.131 376.768 304.688 375.232 307.12C373.696 309.552 372.928 312.24 372.928 315.184C372.928 318.299 373.994 319.856 376.128 319.856Z" fill="white"/>
</g>
<path fill-rule="evenodd" clip-rule="evenodd" d="M325.009 376.449C299.75 392.623 269.72 402 237.5 402C164.701 402 103.083 354.129 82.4075 288.149L91.7824 291.561C113.031 351.818 170.473 395 238 395C266.789 395 293.745 387.151 316.845 373.477L325.009 376.449ZM397.562 211.304C384.213 134.997 317.63 77 237.5 77C197.721 77 161.281 91.293 133.034 115.023L142.011 118.291C168.409 97.443 201.751 85 238 85C312.802 85 375.229 137.988 389.792 208.476L397.562 211.304Z" fill="white"/>
<g filter="url(#filter2_d_6_23)">
<path d="M172.076 183.759L188 183.756L187.996 182.426H171.977V180.908H187.996V179.438L171.977 179.436V177.643L188 178.155V176.766L174.444 175.078C174.444 175.078 173.935 175.038 173.742 175.038C171.652 175.038 169.785 176.007 168.567 177.523C162.933 182.517 157.178 179.107 155.813 179.107C154.3 179.111 131.024 179.111 131.024 179.111V179.115C131.005 179.115 130.992 179.107 130.971 179.107C129.546 179.109 128.39 180.265 128.39 181.691C128.39 183.115 129.549 184.274 130.971 184.275C130.995 184.273 131.007 184.267 131.021 184.267V184.271C131.021 184.271 154.011 184.273 155.767 184.273C157.353 184.269 163.965 181.39 168.883 186.205C168.887 186.209 168.903 186.217 168.912 186.226C170.022 187.4 171.556 188.178 173.282 188.294C173.403 188.303 173.706 188.298 173.706 188.298L187.998 186.656L188 185.132L172.072 185.587L172.076 183.759Z" fill="white"/>
</g>
<g filter="url(#filter3_d_6_23)">
<path d="M134.199 157.376V171.862C134.199 173.043 135.157 173.999 136.338 173.999H164.625C165.808 173.999 166.762 173.043 166.762 171.862V156.275C169.344 154.981 171.515 153.197 172.812 150.759C175.48 145.741 175.688 140.88 173.403 137.074C171.12 133.28 166.667 131.105 161.178 131.105C157.252 131.105 153.736 132.826 150.858 135.007C148.289 132.163 143.328 129.567 138.026 129.705C134.603 129.795 129.749 131.062 126.053 136.604C124.149 139.459 123.566 142.473 124.318 145.569C125.74 151.419 131.694 155.771 134.199 157.376ZM129.613 138.977C131.763 135.751 134.631 134.071 138.135 133.982C141.953 133.892 145.806 135.794 147.653 137.836C144.737 140.787 142.976 143.641 142.827 143.891C142.214 144.898 142.536 146.211 143.545 146.826C144.553 147.44 145.867 147.121 146.483 146.109C146.546 146.003 153.116 135.385 161.174 135.385C165.124 135.385 168.243 136.805 169.731 139.277C171.215 141.745 170.966 145.108 169.03 148.746C165.486 155.415 150.361 155.683 144.831 155.226C143.657 155.121 142.619 156.004 142.523 157.18C142.424 158.359 143.298 159.394 144.475 159.492C144.714 159.512 146.327 159.637 148.689 159.637C152.289 159.637 157.628 159.338 162.483 157.92V169.718H138.475V156.171C138.475 155.393 138.054 154.678 137.376 154.3C137.301 154.257 129.798 150.022 128.474 144.547C128.013 142.643 128.386 140.821 129.613 138.977Z" fill="white"/>
</g>
<defs>
<filter id="filter0_d_6_23" x="1.90405" y="165.24" width="382.838" height="103.04" filterUnits="userSpaceOnUse" color-interpolation-filters="sRGB">
<feFlood flood-opacity="0" result="BackgroundImageFix"/>
<feColorMatrix in="SourceAlpha" type="matrix" values="0 0 0 0 0 0 0 0 0 0 0 0 0 0 0 0 0 0 127 0" result="hardAlpha"/>
<feOffset dy="4"/>
<feGaussianBlur stdDeviation="4"/>
<feComposite in2="hardAlpha" operator="out"/>
<feColorMatrix type="matrix" values="0 0 0 0 0 0 0 0 0 0 0 0 0 0 0 0 0 0 0.6 0"/>
<feBlend mode="normal" in2="BackgroundImageFix" result="effect1_dropShadow_6_23"/>
<feBlend mode="normal" in="SourceGraphic" in2="effect1_dropShadow_6_23" result="shape"/>
</filter>
<filter id="filter1_d_6_23" x="251.936" y="261.84" width="157.728" height="76.864" filterUnits="userSpaceOnUse" color-interpolation-filters="sRGB">
<feFlood flood-opacity="0" result="BackgroundImageFix"/>
<feColorMatrix in="SourceAlpha" type="matrix" values="0 0 0 0 0 0 0 0 0 0 0 0 0 0 0 0 0 0 127 0" result="hardAlpha"/>
<feOffset dy="4"/>
<feGaussianBlur stdDeviation="4"/>
<feComposite in2="hardAlpha" operator="out"/>
<feColorMatrix type="matrix" values="0 0 0 0 0 0 0 0 0 0 0 0 0 0 0 0 0 0 0.6 0"/>
<feBlend mode="normal" in2="BackgroundImageFix" result="effect1_dropShadow_6_23"/>
<feBlend mode="normal" in="SourceGraphic" in2="effect1_dropShadow_6_23" result="shape"/>
</filter>
<filter id="filter2_d_6_23" x="120.39" y="171.038" width="75.6096" height="29.2614" filterUnits="userSpaceOnUse" color-interpolation-filters="sRGB">
<feFlood flood-opacity="0" result="BackgroundImageFix"/>
<feColorMatrix in="SourceAlpha" type="matrix" values="0 0 0 0 0 0 0 0 0 0 0 0 0 0 0 0 0 0 127 0" result="hardAlpha"/>
<feOffset dy="4"/>
<feGaussianBlur stdDeviation="4"/>
<feComposite in2="hardAlpha" operator="out"/>
<feColorMatrix type="matrix" values="0 0 0 0 0 0 0 0 0 0 0 0 0 0 0 0 0 0 0.6 0"/>
<feBlend mode="normal" in2="BackgroundImageFix" result="effect1_dropShadow_6_23"/>
<feBlend mode="normal" in="SourceGraphic" in2="effect1_dropShadow_6_23" result="shape"/>
</filter>
<filter id="filter3_d_6_23" x="116" y="125.7" width="66.9768" height="60.2988" filterUnits="userSpaceOnUse" color-interpolation-filters="sRGB">
<feFlood flood-opacity="0" result="BackgroundImageFix"/>
<feColorMatrix in="SourceAlpha" type="matrix" values="0 0 0 0 0 0 0 0 0 0 0 0 0 0 0 0 0 0 127 0" result="hardAlpha"/>
<feOffset dy="4"/>
<feGaussianBlur stdDeviation="4"/>
<feComposite in2="hardAlpha" operator="out"/>
<feColorMatrix type="matrix" values="0 0 0 0 0 0 0 0 0 0 0 0 0 0 0 0 0 0 0.6 0"/>
<feBlend mode="normal" in2="BackgroundImageFix" result="effect1_dropShadow_6_23"/>
<feBlend mode="normal" in="SourceGraphic" in2="effect1_dropShadow_6_23" result="shape"/>
</filter>
</defs>
</svg>
